# xmcd CD database file
#
# Track frame offsets:
#	150
#	40676
#	82858
#	120028
#	154263
#	185705
#	211890
#	250952
#	277226
#
# Disc length: 3762 seconds
#
# Revision: 0
# Processed by: cddbd v1.5.2PL0 Copyright (c) Steve Scherf et al.
# Submitted via: CDex 1.70beta2
#
DISCID=730eb009
DTITLE=Louis Sclavis - Silk and Salt Melodies
DYEAR=2014
DGENRE=Jazz
TTITLE0=Le parfum de l'exil
TTITLE1=L'homme sud
TTITLE2=L'autre rive
TTITLE3=Sel et soie
TTITLE4=Dance for horses
TTITLE5=Des feux lointains
TTITLE6=Cortège
TTITLE7=Dust and dogs
TTITLE8=Prato plage
EXTD=YEAR: 2014
EXTT0=
EXTT1=
EXTT2=
EXTT3=
EXTT4=
EXTT5=
EXTT6=
EXTT7=
EXTT8=
PLAYORDER=
